HIERARCHY
ROOT Hips
{
  OFFSET 0 0 0
  CHANNELS 6 Xposition Yposition Zposition Zrotation Xrotation Yrotation
  JOINT LeftUpLeg
  {
    OFFSET 4.06525 -3.90732 0.41711
    CHANNELS 3 Zrotation Xrotation Yrotation
    JOINT LeftLeg
    {
      OFFSET 0.00023 -18.4821 0.00367
      CHANNELS 3 Zrotation Xrotation Yrotation
      JOINT LeftFoot
      {
        OFFSET -0.00172 -15.2898 -0.02629
        CHANNELS 3 Zrotation Xrotation Yrotation
        JOINT LeftToeBase
        {
          OFFSET 0.36743 -3.19131 5.54287
          CHANNELS 3 Zrotation Xrotation Yrotation
          JOINT LeftToeBase2
          {
            OFFSET 0.08751 0.04849 1.36758
            CHANNELS 3 Zrotation Xrotation Yrotation
            JOINT LeftToeBase3
            {
              OFFSET 0.07484 0.06785 1.16707
            }
          }
        }
      }
    }
  }
  JOINT RightUpLeg
  {
    OFFSET -4.06526 -3.90731 0.41712
    CHANNELS 3 Zrotation Xrotation Yrotation
    JOINT RightLeg
    {
      OFFSET -0.00029 -18.4821 0.0044
      CHANNELS 3 Zrotation Xrotation Yrotation
      JOINT RightFoot
      {
        OFFSET 0.0016 -15.2898 -0.02569
        CHANNELS 3 Zrotation Xrotation Yrotation
        JOINT RightToeBase
        {
          OFFSET -0.3542 -3.19109 5.54386
          CHANNELS 3 Zrotation Xrotation Yrotation
          JOINT RightToeBase2
          {
            OFFSET -0.08424 0.04854 1.36778
            CHANNELS 3 Zrotation Xrotation Yrotation
            JOINT RightToeBase3
            {
              OFFSET -0.07205 0.0679 1.16725
            }
          }
        }
      }
    }
  }
  JOINT Spine
  {
    OFFSET 1e-005 4.46517 -0.10224
    CHANNELS 3 Zrotation Xrotation Yrotation
    JOINT Spine1
    {
      OFFSET 1e-005 4.46212 -0.1824
      CHANNELS 3 Zrotation Xrotation Yrotation
      JOINT Spine2
      {
        OFFSET 0 4.37937 -0.881
        CHANNELS 3 Zrotation Xrotation Yrotation
        JOINT Spine3
        {
          OFFSET 1e-005 4.68286 0.21414
          CHANNELS 3 Zrotation Xrotation Yrotation
          JOINT Neck
          {
            OFFSET 0 1.76964 0.82454
            CHANNELS 3 Zrotation Xrotation Yrotation
            JOINT Head
            {
              OFFSET 0 1.6961 0.93145
              CHANNELS 3 Zrotation Xrotation Yrotation
              JOINT Head_End
              {
                OFFSET 1e-005 7.8375 1.52603
              }
            }
          }
          JOINT LeftShoulder
          {
            OFFSET 1.19381 -0.75881 -0.02768
            CHANNELS 3 Zrotation Xrotation Yrotation
            JOINT LeftArm
            {
              OFFSET 5.18779 -2e-005 1e-005
              CHANNELS 3 Zrotation Xrotation Yrotation
              JOINT LeftForeArm
              {
                OFFSET 12.7364 -4e-005 2e-005
                CHANNELS 3 Zrotation Xrotation Yrotation
                JOINT LeftHand
                {
                  OFFSET 9.21452 -2e-005 1e-005
                  CHANNELS 3 Zrotation Xrotation Yrotation
                }
              }
            }
          }
          JOINT RightShoulder
          {
            OFFSET -1.19381 -0.75881 -0.02767
            CHANNELS 3 Zrotation Xrotation Yrotation
            JOINT RightArm
            {
              OFFSET -5.18779 1e-005 -1e-005
              CHANNELS 3 Zrotation Xrotation Yrotation
              JOINT RightForeArm
              {
                OFFSET -12.7364 3e-005 -2e-005
                CHANNELS 3 Zrotation Xrotation Yrotation
                JOINT RightHand
                {
                  OFFSET -9.21452 2e-005 -1e-005
                  CHANNELS 3 Zrotation Xrotation Yrotation
                }
              }
            }
          }
        }
      }
    }
  }
}
MOTION
Frames: 8
Frame Time: 	0.0166667
1.92001e-008 40.7456 -2.8655e-008 1.86933 -3.73961 0.121968 1.86485 0.767525 -9.12132  3.76774 15.1413 9.85145  -9.55904 -11.0808 -0.225655  -0.00154002 -0.00098981 -2.77754e-009  -0 0 -0   -9.01764 -2.33831 -7.22439  -0.409175 21.2868 -1.36463  7.27479 -14.0552 0.654318  -2.34016e-011 -5.38977e-011 1.44283e-010  -0 0 -0   -3.34689 1.89047 0.906558  0.356213 0.0403734 0.151812  0.355442 0.0388235 0.153407  0.354662 0.0372745 0.154986  -3.85145e-015 -2.36554e-013 -2.28205e-013  -4.22409 -0.0971808 -2.109   0.121872 -0.0133129 3.563  -61.3205 20.456 -13.8015  24.7428 39.2695 -37.8833  -30.4365 -0.0828277 0.711445  0.0664989 -0.100541 -3.43879  67.2318 -6.68634 6.52818  -18.8727 43.9764 41.0334  6.9997 14.2954 5.58442 
0.0221475 40.7502 -0.0163644 1.9062 -3.71046 0.065317 1.77194 0.759639 -9.0353  3.80362 15.0467 9.84982  -9.52572 -11.0024 -0.217339  -0.00154002 -0.00098981 -2.77754e-009  -0 0 -0   -9.08667 -2.39837 -7.14222  -0.414213 21.2358 -1.39066  7.31799 -13.976 0.641436  -2.34016e-011 -5.38977e-011 1.44283e-010  -0 0 -0   -3.40119 1.93219 0.886128  0.346565 0.0511478 0.151812  0.345786 0.0496045 0.153407  0.344997 0.0480617 0.154986  -3.85145e-015 -2.36554e-013 -2.28205e-013  -4.15736 -0.329686 -2.14875   0.121872 -0.0133129 3.563  -61.3253 20.2275 -13.7199  25.0552 39.4794 -38.1706  -30.3344 -0.082828 0.697769  0.0896042 -0.100541 -3.43879  67.1663 -6.68231 6.65436  -18.9716 43.9509 41.5042  7.45079 13.6671 5.45947 
0.0427196 40.7541 -0.0329123 1.94213 -3.67907 0.00990452 1.684 0.742508 -8.95768  3.8343 14.966 9.85322  -9.49761 -10.931 -0.209611  -0.00154002 -0.00098981 -2.77754e-009  -0 0 -0   -9.15712 -2.46627 -7.07976  -0.415745 21.1998 -1.39906  7.35302 -13.9062 0.629954  -2.34016e-011 -5.38977e-011 1.44283e-010  -0 0 -0   -3.45545 1.97517 0.872763  0.337867 0.0601216 0.151812  0.337074 0.0585773 0.153407  0.336272 0.0570334 0.154986  -3.85145e-015 -2.36554e-013 -2.28205e-013  -4.08705 -0.523659 -2.22959   0.121872 -0.0133129 3.563  -61.3113 20.0539 -13.6606  25.3017 39.6367 -38.4  -30.2002 -0.0828281 0.691121  0.109304 -0.100541 -3.43879  67.1202 -6.67329 6.77397  -19.0435 43.9004 41.8993  7.86812 13.1447 5.34467 
0.0622043 40.7573 -0.0496118 1.97105 -3.64199 -0.0429224 1.60671 0.707445 -8.89927  3.85722 14.9101 9.87013  -9.47767 -10.8718 -0.202982  -0.00154002 -0.00098981 -2.77754e-009  -0 0 -0   -9.22313 -2.54205 -7.04126  -0.413237 21.1713 -1.38765  7.37897 -13.8415 0.619397  -2.34016e-011 -5.38977e-011 1.44283e-010  -0 0 -0   -3.50445 2.01451 0.87255  0.334286 0.062017 0.151812  0.33347 0.0604611 0.153407  0.332645 0.0589054 0.154986  -3.85145e-015 -2.36554e-013 -2.28205e-013  -4.03509 -0.650243 -2.3564   0.121872 -0.0133129 3.563  -61.2859 19.9546 -13.6271  25.4618 39.7463 -38.545  -30.0315 -0.0828282 0.68524  0.118099 -0.102702 -3.43879  67.153 -6.63982 6.88037  -19.0293 43.865 41.92  8.08111 13.089 5.30304 
0.0799614 40.76 -0.0664648 1.99681 -3.60503 -0.0972792 1.53774 0.666281 -8.84373  3.87435 14.8671 9.8891  -9.46263 -10.82 -0.196956  -0.00154002 -0.00098981 -2.77754e-009  -0 0 -0   -9.28609 -2.62239 -7.01453  -0.408371 21.1536 -1.36385  7.39779 -13.7837 0.609988  -2.34016e-011 -5.38977e-011 1.44283e-010  -0 0 -0   -3.5484 2.05437 0.880355  0.331151 0.0633923 0.151812  0.330305 0.0618178 0.153407  0.329451 0.0602436 0.154986  -3.85145e-015 -2.36554e-013 -2.28205e-013  -3.97683 -0.745909 -2.51492   0.121872 -0.0133129 3.563  -61.2447 19.9032 -13.6126  25.5557 39.8086 -38.6307  -29.8358 -0.0828282 0.683392  0.124879 -0.105091 -3.43689  67.1871 -6.60687 6.9804  -19.0004 43.7825 41.9503  8.34053 13.0373 5.24288 
0.0954247 40.7621 -0.0834884 2.02251 -3.57283 -0.158306 1.47542 0.628901 -8.7774  3.88739 14.8278 9.9022  -9.45045 -10.7719 -0.191142  -0.00154002 -0.00098981 -2.77754e-009  -0 0 -0   -9.34671 -2.70519 -6.98809  -0.402506 21.1498 -1.33334  7.4109 -13.7344 0.601893  -2.34016e-011 -5.38977e-011 1.44283e-010  -0 0 -0   -3.58328 2.09783 0.889056  0.323984 0.0646731 0.151812  0.323105 0.0630751 0.153407  0.322217 0.0614774 0.154986  -3.85145e-015 -2.36554e-013 -2.28205e-013  -3.89186 -0.840507 -2.68687   0.121872 -0.0133129 3.563  -61.1844 19.8763 -13.6055  25.5993 39.8215 -38.6779  -29.6183 -0.0828282 0.684305  0.136513 -0.107657 -3.43399  67.158 -6.59534 7.08341  -19.0168 43.5994 42.3239  8.90999 12.5723 5.081 
0.10881 40.7638 -0.100558 2.04506 -3.54485 -0.221548 1.42353 0.592498 -8.7028  3.89452 14.7957 9.90744  -9.4405 -10.7294 -0.185807  -0.00154002 -0.00098981 -2.77754e-009  -0 0 -0   -9.40114 -2.78675 -6.96391  -0.39606 21.1533 -1.29917  7.41895 -13.6902 0.594742  -2.34016e-011 -5.38977e-011 1.44283e-010  -0 0 -0   -3.61653 2.14326 0.910722  0.316398 0.0668531 0.156444  0.315478 0.0652174 0.158034  0.314548 0.0635819 0.159607  -3.85145e-015 -2.36554e-013 -2.28205e-013  -3.7895 -0.925309 -2.88808   0.121872 -0.0133129 3.563  -61.1084 19.8844 -13.6236  25.5879 39.7961 -38.6758  -29.3836 -0.0828281 0.689465  0.151294 -0.110787 -3.43061  67.0869 -6.60024 7.17871  -19.048 43.337 42.89  9.56399 11.9041 4.85927 
0.120075 40.7652 -0.117547 2.06333 -3.52151 -0.28444 1.3848 0.557444 -8.6149  3.89438 14.7695 9.89771  -9.43095 -10.6923 -0.181031  -0.00154002 -0.00098981 -2.77754e-009  -0 0 -0   -9.44698 -2.86388 -6.94185  -0.389568 21.1594 -1.26456  7.42248 -13.6492 0.588303  -2.34016e-011 -5.38977e-011 1.44283e-010  -0 0 -0   -3.65232 2.19073 0.954075  0.309741 0.0711624 0.164311  0.308766 0.0694576 0.165906  0.307781 0.0677528 0.167484  -3.85145e-015 -2.36554e-013 -2.28205e-013  -3.67122 -0.999802 -3.12754   0.121872 -0.0133129 3.563  -61.0187 19.929 -13.6786  25.5237 39.7427 -38.6221  -29.1367 -0.082828 0.696808  0.169798 -0.11517 -3.42685  66.9716 -6.62393 7.25819  -19.0922 42.9974 43.6321  10.1508 11.0963 4.58577 
